<svg width="66" height="16" viewBox="0 0 66 16" fill="none" xmlns="http://www.w3.org/2000/svg">
<path d="M6.08 15.28C4.69333 15.28 3.52667 14.9733 2.58 14.36C1.63333 13.7333 0.966667 12.8867 0.58 11.82L2.94 10.44C3.48667 11.8667 4.56 12.58 6.16 12.58C6.93333 12.58 7.5 12.44 7.86 12.16C8.22 11.88 8.4 11.5267 8.4 11.1C8.4 10.6067 8.18 10.2267 7.74 9.96C7.3 9.68 6.51333 9.38 5.38 9.06C4.75333 8.87333 4.22 8.68667 3.78 8.5C3.35333 8.31333 2.92 8.06667 2.48 7.76C2.05333 7.44 1.72667 7.04 1.5 6.56C1.27333 6.08 1.16 5.52 1.16 4.88C1.16 3.61333 1.60667 2.60667 2.5 1.86C3.40667 1.1 4.49333 0.719999 5.76 0.719999C6.89333 0.719999 7.88667 0.999999 8.74 1.56C9.60667 2.10667 10.28 2.87333 10.76 3.86L8.44 5.2C7.88 4 6.98667 3.4 5.76 3.4C5.18667 3.4 4.73333 3.53333 4.4 3.8C4.08 4.05333 3.92 4.38667 3.92 4.8C3.92 5.24 4.1 5.6 4.46 5.88C4.83333 6.14667 5.54 6.44 6.58 6.76C7.00667 6.89333 7.32667 7 7.54 7.08C7.76667 7.14667 8.06667 7.26 8.44 7.42C8.82667 7.56667 9.12 7.70667 9.32 7.84C9.53333 7.97333 9.77333 8.15333 10.04 8.38C10.3067 8.60667 10.5067 8.84 10.64 9.08C10.7867 9.32 10.9067 9.61333 11 9.96C11.1067 10.2933 11.16 10.66 11.16 11.06C11.16 12.3533 10.6867 13.38 9.74 14.14C8.80667 14.9 7.58667 15.28 6.08 15.28ZM20.9625 0.999999H23.7225V15H21.6225L15.6225 6.44V15H12.8625V0.999999H14.9625L20.9625 9.54V0.999999ZM29.0795 12.36H34.9795V15H26.3195V0.999999H34.8795V3.64H29.0795V6.62H34.3795V9.22H29.0795V12.36ZM46.1398 15L45.2998 12.48H39.7198L38.8798 15H35.8998L40.7998 0.999999H44.2198L49.1398 15H46.1398ZM40.5998 9.9H44.4398L42.5198 4.18L40.5998 9.9ZM61.4392 15H58.2592L53.2592 8.44V15H50.4992V0.999999H53.2592V7.18L58.0592 0.999999H61.2392L56.0592 7.8L61.4392 15ZM65.3839 14.76C65.0506 15.0933 64.6506 15.26 64.1839 15.26C63.7172 15.26 63.3172 15.0933 62.9839 14.76C62.6506 14.4267 62.4839 14.0267 62.4839 13.56C62.4839 13.0933 62.6506 12.6933 62.9839 12.36C63.3172 12.0267 63.7172 11.86 64.1839 11.86C64.6506 11.86 65.0506 12.0267 65.3839 12.36C65.7172 12.6933 65.8839 13.0933 65.8839 13.56C65.8839 14.0267 65.7172 14.4267 65.3839 14.76Z" fill="#1F1F1F"/>
</svg>
